# xmcd
#
# Track frame offsets: 
#        150
#        17845
#        31821
#        43319
#        68320
#        81744
#        96508
#        112626
#        133058
#        148749
#
# Disc length: 2200 seconds
#
# Revision: 2
# Processed by: cddbd v1.5.2PL0 Copyright (c) Steve Scherf et al.
# Submitted via: ExactAudioCopy v0.99pb4
#
DISCID=8708960a
DTITLE=Little Feat - Dixie Chicken
DYEAR=2009
DGENRE=Rock
TTITLE0=Dixie Chicken
TTITLE1=Two Trains
TTITLE2=Roll Um Easy
TTITLE3=On Your Way Down
TTITLE4=Kiss It Off
TTITLE5=Fool Yourself
TTITLE6=Walkin All Night
TTITLE7=Fat Man In The Bathtub
TTITLE8=Juliette
TTITLE9=Lafayette Railroad
EXTD=(P) 1973\n© 2009 Mobile Fidelity Sound Lab (MFSL]\nUDCD 784\nSpec
EXTD=ial Limited Edition\n24 Carat Gold-Disc
EXTT0=
EXTT1=
EXTT2=
EXTT3=
EXTT4=
EXTT5=
EXTT6=
EXTT7=
EXTT8=
EXTT9=
PLAYORDER=
